<svg xmlns="http://www.w3.org/2000/svg" viewBox="0 0 100 156.15"><defs><style>.cls-1,.cls-3{fill:#4ec3b8;}.cls-1{opacity:0.1;isolation:isolate;}.cls-2{fill:#535461;}.cls-4{fill:#eaeaf3;}.cls-5{fill:#fff;}</style></defs><title>android_logo_phone</title><g id="Ebene_2" data-name="Ebene 2"><g id="b4e67b16-eb74-42a6-b922-9d4e1a643c89"><path class="cls-1" d="M0,149.19c8.52,2.86,18.91,1.12,28.58,1.32a9.75,9.75,0,0,1,3.78.61,8.5,8.5,0,0,1,2.31,2c2.71,2.55,8.26,3.38,13.11,2.94s9.3-1.87,13.87-3c7.91-1.89,17-2.74,24.76-.69a6.28,6.28,0,0,0,2.24.33c1.71-.16,2.22-1.53,3.42-2.32,2.16-1.41,6.85-1,7.8-2.89.55-1.08-.73-2.21-2.12-2.95-5.33-2.85-13-3.32-20-2.88S64,143.33,56.94,143.33c-8.74,0-17.19-1.86-25.85-2.62-6-.53-12.54-.46-18.16,1.08C6.85,143.49,5.51,147.27,0,149.19Z"/><rect class="cls-2" x="14.25" y="21.17" width="1.52" height="21.45"/><rect class="cls-2" x="14.25" y="49.99" width="1.52" height="12.13"/><rect class="cls-2" x="15.66" width="68.25" height="148.2" rx="10.2"/><rect class="cls-3" x="15.66" y="6.93" width="68.25" height="134.98" rx="10.2"/><path class="cls-4" d="M45,3.25h9.75a.76.76,0,0,1,.75.76h0a.76.76,0,0,1-.75.76H45A.76.76,0,0,1,44.26,4h0A.76.76,0,0,1,45,3.25Z"/><circle class="cls-4" cx="59.42" cy="4.12" r="1.08"/><path class="cls-5" d="M31.43,67.09V82.9a3.73,3.73,0,0,1-3.7,3.78h-.05a4.08,4.08,0,0,1-4.12-3.78V67.09a4.07,4.07,0,0,1,4.12-3.76A3.77,3.77,0,0,1,31.43,67.09Zm1.48,21.43a4,4,0,0,0,4,4h2.73l.05,8.35c0,5,7.53,5,7.53,0V92.56h5.08v8.35c0,5,7.59,5,7.59,0V92.56h2.75a4,4,0,0,0,4-4h0V64H32.91ZM66.77,62.7h-34a15.34,15.34,0,0,1,8.69-13.57l-2.6-4.82c-.38-.67.58-1.08.91-.52l2.65,4.86a18.47,18.47,0,0,1,14.79,0l2.63-4.84a.53.53,0,1,1,.92.51l-2.6,4.81A15.4,15.4,0,0,1,66.77,62.7ZM43.46,55.12A1.41,1.41,0,1,0,42,56.55a1.44,1.44,0,0,0,1.43-1.43Zm15.49,0a1.42,1.42,0,0,0-1.44-1.39,1.41,1.41,0,1,0,0,2.82A1.42,1.42,0,0,0,59,55.12Zm12.94,8.21a3.74,3.74,0,0,0-3.76,3.73V82.9a3.78,3.78,0,0,0,3.76,3.78h0A4.08,4.08,0,0,0,76,82.9V67.08a4.06,4.06,0,0,0-4.12-3.75Z"/></g></g></svg>