<svg xmlns="http://www.w3.org/2000/svg" xmlns:xlink="http://www.w3.org/1999/xlink" viewBox="0 0 188.61 156"><defs><style>.cls-1,.cls-6{fill:#4ec3b8;}.cls-1,.cls-4{opacity:0.1;isolation:isolate;}.cls-2{fill:#6c63ff;}.cls-3{fill:url(#Unbenannter_Verlauf_24);}.cls-5{fill:#535461;}.cls-7{fill:#fff;}</style><linearGradient id="Unbenannter_Verlauf_24" x1="137.51" y1="-3879.74" x2="137.51" y2="-3733.99" gradientTransform="matrix(1, 0, 0, -1, -43.2, -3733.99)" gradientUnits="userSpaceOnUse"><stop offset="0" stop-color="gray" stop-opacity="0.25"/><stop offset="0.54" stop-color="gray" stop-opacity="0.12"/><stop offset="1" stop-color="gray" stop-opacity="0.1"/></linearGradient></defs><title>desktop_logo_green_1</title><g id="Ebene_2" data-name="Ebene 2"><g id="b4e67b16-eb74-42a6-b922-9d4e1a643c89"><path class="cls-1" d="M48.39,140.61c8.3-5,18.41-2,27.82-2.32a5.85,5.85,0,0,0,3.68-1.06c1-.87,1.54-2.28,2.25-3.48,2.64-4.47,8-5.91,12.76-5.15s9,3.27,13.5,5.18c7.7,3.32,16.5,4.82,24.1,1.21a3.77,3.77,0,0,1,2.18-.58c1.66.3,2.16,2.7,3.32,4.07,2.11,2.48,6.67,1.8,7.59,5.07.54,1.9-.7,3.87-2.06,5.18-5.19,5-12.62,5.82-19.41,5.05s-13.48-2.9-20.31-2.9c-8.51,0-16.73,3.26-25.15,4.6-5.84.92-12.21.81-17.68-1.9C55.06,150.61,53.75,144,48.39,140.61Z"/><path class="cls-2" d="M176.82,8.45,164.23,9.52S170.93,21,176.82,8.45Z"/><path class="cls-2" d="M154.86,1.48l10,8S151.91,14.61,154.86,1.48Z"/><path class="cls-3" d="M181.77,0H6.85A6.84,6.84,0,0,0,0,6.83V108.77a6.85,6.85,0,0,0,6.85,6.84H77.29v25.12H70.66A1.64,1.64,0,0,0,69,142.36v3.39h51.41v-3.4a1.63,1.63,0,0,0-1.63-1.63h-8.47V115.6h71.44a6.84,6.84,0,0,0,6.84-6.83V6.83A6.84,6.84,0,0,0,181.77,0Z"/><rect class="cls-4" x="77.72" y="139.41" width="32.49" height="2.78"/><rect class="cls-5" x="77.92" y="110.84" width="32.49" height="31.35"/><path class="cls-5" d="M71.41,139.73h47.32a1.61,1.61,0,0,1,1.61,1.6v3.35H69.8v-3.35A1.61,1.61,0,0,1,71.41,139.73Z"/><rect class="cls-5" x="1.94" y="1.07" width="185.44" height="113.89" rx="6.73"/><rect class="cls-6" x="5.84" y="11.58" width="177.24" height="93.04"/><ellipse class="cls-7" cx="94.26" cy="5.5" rx="1.56" ry="1.54"/><rect class="cls-4" x="77.79" y="115.04" width="32.39" height="0.61"/><path class="cls-7" d="M92.88,57.41,87.37,75.15c-4.46-3.11-9.32-5.69-19.8-1.56L73,56,73,56C83.45,51.91,88.43,54.28,92.88,57.41Zm2.68,1.76L90.13,76.73c4.45,3.14,9.39,5.66,19.86,1.54l5.25-17.11C104.58,64.6,100,62.28,95.56,59.17Zm-1.76-5,5.42-17.58C94.77,33.5,89.82,31,79.34,35.1L73.91,52.76c4.16-1.63,7.43-2.36,10.16-2.29C88.23,50.57,91.11,52.34,93.8,54.21Zm8.09-15.68L96.46,56.22c4.43,3.12,9.83,5.71,19.86,1.43L121.75,40C111.28,44.14,106.33,41.65,101.89,38.53Z"/></g></g></svg>