<svg xmlns="http://www.w3.org/2000/svg" xmlns:xlink="http://www.w3.org/1999/xlink" viewBox="0 0 188.61 156"><defs><style>.cls-1,.cls-6{fill:#4ec3b8;}.cls-1,.cls-4{opacity:0.1;isolation:isolate;}.cls-2{fill:#6c63ff;}.cls-3{fill:url(#Unbenannter_Verlauf_24);}.cls-5{fill:#535461;}.cls-7{fill:#fff;}</style><linearGradient id="Unbenannter_Verlauf_24" x1="137.51" y1="514.44" x2="137.51" y2="660.19" gradientTransform="matrix(1, 0, 0, -1, -43.2, 660.19)" gradientUnits="userSpaceOnUse"><stop offset="0" stop-color="gray" stop-opacity="0.25"/><stop offset="0.54" stop-color="gray" stop-opacity="0.12"/><stop offset="1" stop-color="gray" stop-opacity="0.1"/></linearGradient></defs><title>desktop_logo_green</title><g id="Ebene_2" data-name="Ebene 2"><g id="b4e67b16-eb74-42a6-b922-9d4e1a643c89"><path class="cls-1" d="M48.39,140.61c8.3-5,18.41-2,27.82-2.32a5.85,5.85,0,0,0,3.68-1.06c1-.87,1.54-2.28,2.25-3.48,2.64-4.47,8-5.91,12.76-5.15s9,3.27,13.5,5.18c7.7,3.32,16.5,4.82,24.1,1.21a3.77,3.77,0,0,1,2.18-.58c1.66.3,2.16,2.7,3.32,4.07,2.11,2.48,6.67,1.8,7.59,5.07.54,1.9-.7,3.87-2.06,5.18-5.19,5-12.62,5.82-19.41,5.05s-13.48-2.9-20.31-2.9c-8.51,0-16.73,3.26-25.15,4.6-5.84.92-12.21.81-17.68-1.9C55.06,150.61,53.75,144,48.39,140.61Z"/><path class="cls-2" d="M176.82,8.45,164.23,9.52S170.93,21,176.82,8.45Z"/><path class="cls-2" d="M154.86,1.48l10,8S151.91,14.61,154.86,1.48Z"/><path class="cls-3" d="M181.77,0H6.85A6.84,6.84,0,0,0,0,6.83V108.77a6.85,6.85,0,0,0,6.85,6.84H77.29v25.12H70.66A1.64,1.64,0,0,0,69,142.36v3.39h51.41v-3.4a1.63,1.63,0,0,0-1.63-1.63h-8.47V115.6h71.44a6.84,6.84,0,0,0,6.84-6.83V6.83A6.84,6.84,0,0,0,181.77,0Z"/><rect class="cls-4" x="77.72" y="139.41" width="32.49" height="2.78"/><rect class="cls-5" x="77.72" y="110.84" width="32.49" height="31.35"/><path class="cls-5" d="M71.2,139.73h47.33a1.61,1.61,0,0,1,1.61,1.6v3.35H69.59v-3.35A1.61,1.61,0,0,1,71.2,139.73Z"/><rect class="cls-5" x="1.73" y="0.37" width="185.44" height="113.89" rx="6.73"/><rect class="cls-6" x="5.64" y="10.87" width="177.24" height="93.04"/><ellipse class="cls-7" cx="94.26" cy="5.5" rx="1.56" ry="1.54"/><rect class="cls-4" x="77.79" y="115.04" width="32.39" height="0.61"/><path class="cls-7" d="M56.63,55.38,50.25,76c-5.18-3.61-10.81-6.61-23-1.82l6.24-20.36.07,0C45.7,49,51.47,51.76,56.63,55.38Zm3.11,2-6.3,20.35c5.16,3.65,10.89,6.57,23,1.79l6.08-19.84C70.2,63.72,64.9,61,59.74,57.43Zm-2.05-5.75L64,31.29c-5.16-3.63-10.9-6.56-23-1.78L34.63,50c4.83-1.89,8.62-2.73,11.79-2.65C51.24,47.45,54.57,49.51,57.69,51.68ZM67.08,33.5,60.78,54c5.15,3.62,11.4,6.62,23,1.67l6.3-20.43C78,40,72.23,37.11,67.08,33.5Z"/><path class="cls-7" d="M150.71,56.26a12.21,12.21,0,0,0,7.4,11.16,30.2,30.2,0,0,1-3.82,7.83C152,78.61,149.61,82,145.86,82s-4.88-2.19-9.1-2.19-5.53,2.12-9,2.25-6.38-3.63-8.7-7c-4.73-6.84-8.35-19.34-3.49-27.77a13.48,13.48,0,0,1,11.4-6.91c3.56-.06,6.92,2.4,9.1,2.4s6.26-3,10.55-2.53a12.91,12.91,0,0,1,10.08,5.47c-.26.16-6,3.51-6,10.48m-6.93-20.47a12.14,12.14,0,0,0,2.86-8.8,12.34,12.34,0,0,0-8.12,4.17c-1.78,2.06-3.34,5.36-2.92,8.53,3.09.24,6.25-1.57,8.18-3.9"/><path class="cls-7" d="M86.77,85a1.56,1.56,0,0,0,.33,1.79l.39.23c.44.25,1-.16,1.28-.93l21-61.91a1.62,1.62,0,0,0-.34-1.85l-.28-.16c-.44-.25-1,.14-1.24.88Z"/></g></g></svg>